<svg xmlns="http://www.w3.org/2000/svg" xmlns:xlink="http://www.w3.org/1999/xlink" viewBox="0 0 1920 1080"><defs><style>.cls-1,.cls-14{fill:#26232a;}.cls-1{stroke:#1d1d1b;stroke-miterlimit:10;}.cls-2{font-size:226.37px;}.cls-16,.cls-2,.cls-4{fill:#ac1917;}.cls-2,.cls-3{font-family:GeizerRegular, Geizer;}.cls-3{font-size:98.86px;}.cls-3,.cls-7{fill:#f9af19;}.cls-4{font-size:62.43px;font-family:LatinaEssential-Bold, Latina Essential;font-weight:700;}.cls-5{letter-spacing:-0.01em;}.cls-6{letter-spacing:-0.03em;}.cls-7{font-size:34.46px;font-family:LatinaEssential-Light, Latina Essential;font-weight:300;}.cls-8{letter-spacing:-0.02em;}.cls-9{letter-spacing:-0.02em;}.cls-10{letter-spacing:-0.01em;}.cls-11{letter-spacing:-0.02em;}.cls-12{letter-spacing:-0.01em;}.cls-13{letter-spacing:-0.03em;}.cls-15{fill:#931914;}.cls-17{fill:url(#Dégradé_sans_nom_74);}.cls-18{fill:#83807f;}.cls-19{fill:#ffd000;}.cls-20{fill:#ecebec;}.cls-21{fill:url(#Dégradé_sans_nom_39);}.cls-22{fill:url(#Dégradé_sans_nom_68);}.cls-23{fill:#f0c300;}.cls-24{fill:url(#Dégradé_sans_nom_39-3);}.cls-25{fill:url(#Dégradé_sans_nom_68-3);}.cls-26,.cls-27{opacity:0.3;}.cls-26{fill:url(#Dégradé_sans_nom_10);}.cls-27{fill:url(#Dégradé_sans_nom_10-2);}.cls-28{opacity:0.6;}.cls-29,.cls-30,.cls-31,.cls-32,.cls-33,.cls-34,.cls-35,.cls-36{opacity:0.1;}.cls-29{fill:url(#Dégradé_sans_nom_156);}.cls-30{fill:url(#Dégradé_sans_nom_154);}.cls-31{fill:url(#Dégradé_sans_nom_154-2);}.cls-32{fill:url(#Dégradé_sans_nom_154-3);}.cls-33{fill:url(#Dégradé_sans_nom_156-2);}.cls-34{fill:url(#Dégradé_sans_nom_156-3);}.cls-35{fill:url(#Dégradé_sans_nom_156-4);}.cls-36{fill:url(#Dégradé_sans_nom_134);}</style><linearGradient id="Dégradé_sans_nom_74" x1="1065.97" y1="751.98" x2="1065.97" y2="733" gradientUnits="userSpaceOnUse"><stop offset="0" stop-color="#ac1917"/><stop offset="0.52" stop-color="#ab1b18"/><stop offset="0.71" stop-color="#a6221c"/><stop offset="0.85" stop-color="#9f2e23"/><stop offset="0.97" stop-color="#943f2c"/><stop offset="1" stop-color="#904530"/></linearGradient><linearGradient id="Dégradé_sans_nom_39" x1="843.87" y1="483.32" x2="863.43" y2="494.61" gradientUnits="userSpaceOnUse"><stop offset="0" stop-color="#fce04d"/><stop offset="0.2" stop-color="#fcdf46"/><stop offset="0.48" stop-color="#fddb34"/><stop offset="0.81" stop-color="#fed415"/><stop offset="1" stop-color="#ffd000"/></linearGradient><linearGradient id="Dégradé_sans_nom_68" x1="848.07" y1="481.15" x2="848.07" y2="497.96" gradientUnits="userSpaceOnUse"><stop offset="0" stop-color="#fff279"/><stop offset="0.04" stop-color="#fff075"/><stop offset="0.44" stop-color="#fee455"/><stop offset="0.77" stop-color="#fddd42"/><stop offset="1" stop-color="#fdda3b"/></linearGradient><linearGradient id="Dégradé_sans_nom_39-3" x1="798.64" y1="485.36" x2="818.2" y2="496.65" gradientTransform="matrix(0.98, 0.17, -0.17, 0.98, 322.57, -135.22)" xlink:href="#Dégradé_sans_nom_39"/><linearGradient id="Dégradé_sans_nom_68-3" x1="802.84" y1="483.18" x2="802.84" y2="500" gradientTransform="matrix(0.98, 0.17, -0.17, 0.98, 322.57, -135.22)" xlink:href="#Dégradé_sans_nom_68"/><linearGradient id="Dégradé_sans_nom_10" x1="674.36" y1="788.01" x2="1213.07" y2="788.01" gradientUnits="userSpaceOnUse"><stop offset="0" stop-color="#ffec00"/><stop offset="0.11" stop-color="#fae800"/><stop offset="0.24" stop-color="#eddc00"/><stop offset="0.37" stop-color="#d7c700"/><stop offset="0.5" stop-color="#b8ab00"/><stop offset="0.64" stop-color="#918600"/><stop offset="0.77" stop-color="#605900"/><stop offset="0.91" stop-color="#272400"/><stop offset="1"/></linearGradient><linearGradient id="Dégradé_sans_nom_10-2" x1="673.86" y1="788.91" x2="1212.58" y2="788.91" xlink:href="#Dégradé_sans_nom_10"/><linearGradient id="Dégradé_sans_nom_156" x1="1081.16" y1="724.85" x2="1073.07" y2="710.85" gradientUnits="userSpaceOnUse"><stop offset="0" stop-color="#1d1d1b"/><stop offset="0.03" stop-color="#2b2b29"/><stop offset="0.12" stop-color="#5b5b59"/><stop offset="0.22" stop-color="#858584"/><stop offset="0.33" stop-color="#a9a9a8"/><stop offset="0.43" stop-color="#c6c6c6"/><stop offset="0.55" stop-color="#dddddc"/><stop offset="0.67" stop-color="#ededed"/><stop offset="0.81" stop-color="#f6f6f6"/><stop offset="1" stop-color="#f9f9f9"/></linearGradient><linearGradient id="Dégradé_sans_nom_154" x1="1067.11" y1="749.64" x2="1058.03" y2="733.91" gradientUnits="userSpaceOnUse"><stop offset="0" stop-color="#1d1d1b"/><stop offset="0.02" stop-color="#333331"/><stop offset="0.07" stop-color="#5c5c5a"/><stop offset="0.12" stop-color="#828280"/><stop offset="0.18" stop-color="#a2a2a1"/><stop offset="0.24" stop-color="#bdbdbd"/><stop offset="0.31" stop-color="#d3d3d3"/><stop offset="0.39" stop-color="#e4e4e4"/><stop offset="0.49" stop-color="#f0f0f0"/><stop offset="0.63" stop-color="#f7f7f7"/><stop offset="1" stop-color="#f9f9f9"/></linearGradient><linearGradient id="Dégradé_sans_nom_154-2" x1="1057.83" y1="785.4" x2="1048.83" y2="769.82" xlink:href="#Dégradé_sans_nom_154"/><linearGradient id="Dégradé_sans_nom_154-3" x1="1053.47" y1="826.72" x2="1037.53" y2="799.09" xlink:href="#Dégradé_sans_nom_154"/><linearGradient id="Dégradé_sans_nom_156-2" x1="1076.4" y1="829.22" x2="1076.4" y2="781.91" xlink:href="#Dégradé_sans_nom_156"/><linearGradient id="Dégradé_sans_nom_156-3" x1="1073.73" y1="902.59" x2="1134.37" y2="902.59" xlink:href="#Dégradé_sans_nom_156"/><linearGradient id="Dégradé_sans_nom_156-4" x1="1080.68" y1="938.27" x2="1064.44" y2="910.16" xlink:href="#Dégradé_sans_nom_156"/><linearGradient id="Dégradé_sans_nom_134" x1="1086.75" y1="679.32" x2="1079.61" y2="666.95" gradientUnits="userSpaceOnUse"><stop offset="0" stop-color="#1d1d1b"/><stop offset="0.06" stop-color="#434341"/><stop offset="0.13" stop-color="#6d6d6c"/><stop offset="0.21" stop-color="#939392"/><stop offset="0.3" stop-color="#b3b3b2"/><stop offset="0.39" stop-color="#ccc"/><stop offset="0.5" stop-color="#e0e0e0"/><stop offset="0.61" stop-color="#eee"/><stop offset="0.76" stop-color="#f7f7f7"/><stop offset="1" stop-color="#f9f9f9"/></linearGradient></defs><title>OralPlan de travail 1</title><g id="fond_color" data-name="fond color"><rect class="cls-1" width="1920" height="1080"/></g><g id="Calque_8" data-name="Calque 8"><text class="cls-2" transform="translate(593.61 229.07) scale(0.67 1)">CARMAGEDDON</text><text class="cls-3" transform="translate(596.88 323.03) scale(0.67 1)"><tspan xml:space="preserve">Simulator  </tspan></text><text class="cls-4" transform="translate(1698.22 666.28) scale(0.67 1)">LES<tspan class="cls-5" x="114.56" y="0">C</tspan><tspan x="154.83" y="0">OU</tspan><tspan class="cls-6" x="252.6" y="0">T</tspan></text><text class="cls-7" transform="translate(1756.18 714.91) scale(0.67 1)">ELI<tspan class="cls-8" x="51.1" y="0">E</tspan><tspan class="cls-9" x="71.71" y="0">-</tspan><tspan x="86.84" y="0">AL</tspan><tspan class="cls-10" x="130.19" y="0">B</tspan><tspan x="153.69" y="0">AN</tspan></text><text class="cls-4" transform="translate(1675.82 780.96) scale(0.67 1)">DUJARDIN</text><text class="cls-7" transform="translate(1796.99 829.6) scale(0.67 1)">A<tspan class="cls-11" x="23.81" y="0">R</tspan><tspan x="46.52" y="0">THUR</tspan></text><text class="cls-4" transform="translate(1703.37 551.59) scale(0.67 1)">MERME<tspan class="cls-6" x="244.86" y="0">T</tspan></text><text class="cls-7" transform="translate(1798.46 600.22) scale(0.67 1)"><tspan class="cls-12">S</tspan><tspan x="19.81" y="0">AMUE</tspan><tspan class="cls-13" x="122.47" y="0">L</tspan></text><polyline class="cls-14" points="877.19 230.21 877.19 202.4 872.65 202.4 872.65 230.21"/><polyline class="cls-14" points="899.15 230.35 899.15 202.54 894.61 202.54 894.61 230.35"/><polyline class="cls-15" points="740.72 993.86 894.08 993.86 891.57 1042.66 999.69 1045.03 995.75 993.38 1152.42 993.38 1008.41 260.98 998.53 257.72 997.32 254.81 994.12 258.75 992.83 260.86 1039.8 895.98 993.34 895.98 953.66 260.99 950.79 258.39 943.76 252.8 923.12 259.61 938.79 260.89 899.11 895.93 853 895.93 899.35 260.64 900.75 258.17 889.72 249.67 868.52 259.76 884.37 260.92 739.43 993.86"/><polyline class="cls-16" points="738.5 995.01 891.87 995.01 889.36 1043.82 1001.33 1043.82 998.77 994.54 1150.21 994.54 1006.2 262.14 1022.69 260.72 988 238.32 971.67 244.18 990.62 262.01 1037.59 897.13 991.13 897.13 951.46 262.15 966.65 260.92 946.24 238.48 920.91 260.77 936.59 262.04 896.9 897.09 850.79 897.09 897.14 261.8 913.46 261 894.61 229.07 877.19 229.07 886.22 242.72 866.31 260.91 882.16 262.08 737.22 995.01"/><polygon class="cls-16" points="784.66 865.49 0 865.49 0 972.04 1497.03 971.05 1920 972.04 1920 865.49 784.66 865.49"/><polygon class="cls-14" points="706.26 863.99 686.9 973.06 642.01 973.55 665.63 863.99 706.26 863.99"/><polygon class="cls-14" points="617.69 863.76 598.32 972.84 553.43 973.32 577.06 863.76 617.69 863.76"/><polygon class="cls-14" points="529.69 863.76 510.32 972.84 465.43 973.32 489.06 863.76 529.69 863.76"/><polygon class="cls-14" points="441.69 863.76 422.32 972.84 377.43 973.32 401.06 863.76 441.69 863.76"/><polygon class="cls-14" points="353.69 863.76 334.32 972.84 289.43 973.32 313.06 863.76 353.69 863.76"/><polygon class="cls-14" points="265.69 863.76 246.32 972.84 201.43 973.32 225.06 863.76 265.69 863.76"/><polygon class="cls-14" points="177.69 863.76 158.32 972.84 113.43 973.32 137.06 863.76 177.69 863.76"/><polygon class="cls-14" points="89.69 863.76 70.32 972.84 25.43 973.32 49.06 863.76 89.69 863.76"/><polygon class="cls-14" points="1175.35 863.99 1194.72 973.06 1239.61 973.55 1215.98 863.99 1175.35 863.99"/><polygon class="cls-14" points="1263.93 863.76 1283.29 972.84 1328.18 973.32 1304.55 863.76 1263.93 863.76"/><polygon class="cls-14" points="1350.93 863.76 1370.29 972.84 1415.18 973.32 1391.55 863.76 1350.93 863.76"/><polygon class="cls-14" points="1437.93 863.76 1457.29 972.84 1502.18 973.32 1478.55 863.76 1437.93 863.76"/><polygon class="cls-14" points="1524.93 863.76 1544.29 972.84 1589.18 973.32 1565.55 863.76 1524.93 863.76"/><polygon class="cls-14" points="1611.93 863.76 1631.29 972.84 1676.18 973.32 1652.55 863.76 1611.93 863.76"/><polygon class="cls-14" points="1698.93 863.76 1718.29 972.84 1763.18 973.32 1739.55 863.76 1698.93 863.76"/><polygon class="cls-14" points="1785.93 863.76 1805.29 972.84 1850.18 973.32 1826.55 863.76 1785.93 863.76"/><polygon class="cls-14" points="1872.93 863.76 1892.29 972.84 1920 979 1920 893.65 1913.55 863.76 1872.93 863.76"/><path class="cls-17" d="M1058.82,734.83c-.76.74.64,2.14,0,4.48-.39,1.46-1,1.33-2.18,3.63a11.3,11.3,0,0,0-1.21,4c-.13,1.65.19,3.43.73,3.52.36,0,.51-.68,1.33-1a2.5,2.5,0,0,1,1.7.12,8.64,8.64,0,0,1,2.79,1.82c1.37,1,2.84.43,5.57.12,5.7-.66,8.72.57,9-.25.19-.67-1.63-2.31-3.64-2.54s-3.05,1-4.73.24c-.67-.29-1.42-.89-1.33-1.33.18-.8,3-.08,4-1.45.71-1,.21-2.44-.61-4.73-1.34-3.8-2.9-5.4-2.3-6.18s3.27.41,3.52-.12-1.53-2.37-3.28-2.18c-1.46.15-1.51,1.62-3.15,2.3C1062.41,736.39,1059.86,733.81,1058.82,734.83Z"/><path class="cls-18" d="M946.32,492.19c0-5.52,0-11,0-16.56,0-4,2-6,5.93-6.3,3.17-.24,7.21,1.36,7.43,5.33s.61,8.26.46,12.38c-.26,7.13-.64,14.27-1.44,21.35-.48,4.18-3.08,5.76-7.19,5.42-3.82-.32-5.13-1.64-5.17-5.44-.05-5.39,0-10.79,0-16.18Z"/><path class="cls-18" d="M941.58,492.22c0,5.27,0,10.54,0,15.8,0,3.94-1.05,5.19-4.45,5.74-3.8.61-6.54-.72-7.62-3.94a18.17,18.17,0,0,1-1-5.14c-.28-8.76-.44-17.54-.6-26.3,0-1.12.23-2.24.31-3.37.18-2.88,1.76-4.54,4.49-5.35a7.16,7.16,0,0,1,7.64,1.87,6.65,6.65,0,0,1,1.21,4.14c.14,5.52.06,11,.06,16.55Z"/><path class="cls-14" d="M946.91,492.42c0-5.45,0-10.91,0-16.36,0-3.93,1.92-5.94,5.81-6.23,3.1-.24,7.07,1.34,7.28,5.26.22,4.08.6,8.17.45,12.24-.25,7.05-.62,14.1-1.41,21.1-.47,4.13-3,5.69-7,5.35-3.74-.31-5-1.61-5.06-5.37-.06-5.33,0-10.66,0-16Z"/><path class="cls-14" d="M942.27,492.45c0,5.21,0,10.41,0,15.62,0,3.88-1,5.12-4.37,5.67-3.72.6-6.41-.71-7.47-3.9a18,18,0,0,1-1-5.08c-.28-8.66-.43-17.33-.59-26,0-1.11.23-2.21.3-3.32.19-2.85,1.74-4.49,4.4-5.3A7,7,0,0,1,941,472c.88.92,1.16,2.69,1.19,4.09.13,5.45,0,10.9,0,16.35Z"/><circle class="cls-19" cx="1034.61" cy="487.86" r="14.13" transform="translate(374.43 1421.98) rotate(-79.99)"/><circle class="cls-14" cx="854.69" cy="487.86" r="14.13"/><circle class="cls-20" cx="854.36" cy="487.59" r="13.08" transform="translate(236.22 1252.81) rotate(-80.78)"/><circle class="cls-19" cx="854.69" cy="487.86" r="13.08" transform="matrix(0.16, -0.99, 0.99, 0.16, 236.22, 1253.36)"/><path class="cls-21" d="M850.63,476.42c-1.27.24-2.41,1.39-3.68,2.67a12.93,12.93,0,0,0-3.22,4.84,11.69,11.69,0,0,0-.21,7.5,12.18,12.18,0,0,0,15.38,7.51,12.79,12.79,0,0,0,1.51-.86,12.09,12.09,0,0,0,2-1.77C864.61,493.8,856.53,475.27,850.63,476.42Z"/><path class="cls-22" d="M848,481.15c-1.06.06-1.73,1.68-2.28,3a11.12,11.12,0,0,0-1.13,6,9.73,9.73,0,0,0,2.81,5.73c1.35,1.29,3.51,2.5,4.12,1.95.1-.08.14-.21.16-.81a7,7,0,0,0-.33-3.19c-.51-1.14-1.15-1-1.89-2-1.1-1.52-.85-3.51-.65-5.09.33-2.61,1.28-3.75.54-4.82A1.68,1.68,0,0,0,848,481.15Z"/><path class="cls-18" d="M937.12,513.76c-3.8.61-6.54-.72-7.62-3.94a18.17,18.17,0,0,1-1-5.14c-.28-8.76-.44-17.54-.6-26.3,0-1.12.23-2.24.31-3.37.18-2.88,1.76-4.54,4.49-5.35a7.16,7.16,0,0,1,7.64,1.87"/><path class="cls-14" d="M937.89,513.74c-3.72.6-6.41-.71-7.47-3.9a18,18,0,0,1-1-5.08c-.28-8.66-.43-17.33-.59-26,0-1.11.23-2.21.3-3.32.19-2.85,1.74-4.49,4.4-5.3A7,7,0,0,1,941,472"/><circle class="cls-14" cx="854.69" cy="487.86" r="14.13"/><circle class="cls-20" cx="854.36" cy="487.59" r="13.08" transform="translate(236.22 1252.81) rotate(-80.78)"/><circle class="cls-23" cx="854.69" cy="487.86" r="13.08" transform="matrix(0.16, -0.99, 0.99, 0.16, 236.22, 1253.36)"/><path class="cls-21" d="M850.63,476.42c-1.27.24-2.41,1.39-3.68,2.67a12.93,12.93,0,0,0-3.22,4.84,11.69,11.69,0,0,0-.21,7.5,12.18,12.18,0,0,0,15.38,7.51,12.79,12.79,0,0,0,1.51-.86,12.09,12.09,0,0,0,2-1.77C864.61,493.8,856.53,475.27,850.63,476.42Z"/><path class="cls-22" d="M848,481.15c-1.06.06-1.73,1.68-2.28,3a11.12,11.12,0,0,0-1.13,6,9.73,9.73,0,0,0,2.81,5.73c1.35,1.29,3.51,2.5,4.12,1.95.1-.08.14-.21.16-.81a7,7,0,0,0-.33-3.19c-.51-1.14-1.15-1-1.89-2-1.1-1.52-.85-3.51-.65-5.09.33-2.61,1.28-3.75.54-4.82A1.68,1.68,0,0,0,848,481.15Z"/><path class="cls-14" d="M947,492.45c0,5.21,0,10.41,0,15.62,0,3.88,1,5.12,4.37,5.67,3.73.6,6.41-.71,7.47-3.9a18,18,0,0,0,1-5.08c.28-8.66.43-17.33.59-26,0-1.11-.23-2.21-.3-3.32-.19-2.85-1.74-4.49-4.4-5.3a7,7,0,0,0-7.5,1.86c-.87.92-1.15,2.69-1.19,4.09-.13,5.45-.05,10.9-.05,16.35Z"/><circle class="cls-14" cx="1034.6" cy="487.86" r="14.13" transform="translate(374.42 1421.96) rotate(-79.99)"/><circle class="cls-20" cx="1034.33" cy="487.53" r="13.08" transform="translate(233.44 1303.68) rotate(-70.78)"/><circle class="cls-19" cx="1034.6" cy="487.86" r="13.08" transform="translate(233.31 1304.15) rotate(-70.78)"/><path class="cls-24" d="M1032.59,475.89c-1.29,0-2.61.95-4.09,2a12.92,12.92,0,0,0-4,4.2,11.64,11.64,0,0,0-1.52,7.36,12.19,12.19,0,0,0,13.84,10.06,12.46,12.46,0,0,0,1.64-.59,12.26,12.26,0,0,0,2.3-1.39C1043.34,495.43,1038.61,475.78,1032.59,475.89Z"/><path class="cls-25" d="M1029.14,480.08c-1.06-.13-2,1.35-2.77,2.59a11.12,11.12,0,0,0-2.15,5.67,9.75,9.75,0,0,0,1.77,6.14c1.11,1.5,3,3.06,3.72,2.63.11-.07.17-.18.3-.77a6.91,6.91,0,0,0,.23-3.2c-.3-1.21-1-1.16-1.52-2.3-.81-1.69-.22-3.61.25-5.13.77-2.51,1.92-3.47,1.37-4.65A1.68,1.68,0,0,0,1029.14,480.08Z"/><circle class="cls-14" cx="1034.6" cy="487.86" r="14.13" transform="translate(374.42 1421.96) rotate(-79.99)"/><circle class="cls-20" cx="1034.33" cy="487.53" r="13.08" transform="translate(233.44 1303.68) rotate(-70.78)"/><circle class="cls-23" cx="1034.6" cy="487.86" r="13.08" transform="translate(233.31 1304.15) rotate(-70.78)"/><path class="cls-24" d="M1032.59,475.89c-1.29,0-2.61.95-4.09,2a12.92,12.92,0,0,0-4,4.2,11.64,11.64,0,0,0-1.52,7.36,12.19,12.19,0,0,0,13.84,10.06,12.46,12.46,0,0,0,1.64-.59,12.26,12.26,0,0,0,2.3-1.39C1043.34,495.43,1038.61,475.78,1032.59,475.89Z"/><path class="cls-25" d="M1029.14,480.08c-1.06-.13-2,1.35-2.77,2.59a11.12,11.12,0,0,0-2.15,5.67,9.75,9.75,0,0,0,1.77,6.14c1.11,1.5,3,3.06,3.72,2.63.11-.07.17-.18.3-.77a6.91,6.91,0,0,0,.23-3.2c-.3-1.21-1-1.16-1.52-2.3-.81-1.69-.22-3.61.25-5.13.77-2.51,1.92-3.47,1.37-4.65A1.68,1.68,0,0,0,1029.14,480.08Z"/><path class="cls-26" d="M674.36,1082.19h538.71L1041.48,498.48c0,.51-2,1.4-2,1.4a15.07,15.07,0,0,1-9,.39,12.54,12.54,0,0,1-5-3.08s-2.53-3.37-2.54-3.37Z"/><path class="cls-27" d="M1212.58,1084H673.86L846.17,496.79c1.09,1.17,4.56,2.8,7.52,3.58,1.35.35,5.38.33,7.34-1.74.7-.73,4.79-4.2,4.89-4.81C978.49,691.4,1100,886.43,1212.58,1084Z"/><path class="cls-14" d="M1092.22,661.89c4.88.32,8.45-.22,12,2.1,5.25,3.44,10.71,12.45,8.26,17.63-1.45,3.06-2.7,6.45-1.47,8.53,1.47,2.51,5,4.61,8,5.27,10,2.2,13.06,9.46,14.81,18.16a8.87,8.87,0,0,0,2.32,4.24,26.72,26.72,0,0,1,8.2,21.84c-.28,4.05-.65,8.65.92,12.14,1.74,3.89.16,7.53,1.14,11.08,1,3.73,2.64,7.31,3.71,11,1,3.37,1.11,6.73-2.13,9.25-2,1.54-2.07,2.94-.46,5.17.91,1.25.88,4,.09,5.5-3.49,6.55-5,13.5-5.54,20.81-.2,2.54-1.44,5-2,7.53-.62,2.89,1.1,6.11-1.92,8.69s-6.08,5.57-10.39,5.25c-3.76-.29-3.71,1.35-4.8,4.48a149.53,149.53,0,0,1-14.65,30.63,26.94,26.94,0,0,0-3.79,9.9c-.52,3.29-1.64,7.74,4,8.55.53,7.21,8.56,9.79,10.23,15.64,1.92,6.77,8.84,9.26,10.8,15.49,8.3,3.47,11.19,12.2,17.28,17.88,7.84,7.3,7.23,10.23-1.66,17.35-1.26,1-2.85,2.6-2.9,4-.43,12-9.86,15-18.38,18.88a3.51,3.51,0,0,1-2.08,0,23.52,23.52,0,0,1-2.73-1c.53-1.06,1-3,1.61-3,4.92-.53,5-5.19,6.47-8.11.87-1.72-.74-5.06-1.9-7.32-1.5-2.92-3.66-5.49-5.56-8.19-2.3-3.25-4.69-6.43-6.92-9.72s-4.31-6.59-6.41-9.92c-1-1.66-1.69-3.67-3-5-2.38-2.35-5.16-4.31-7.77-6.44-2.23,2.82-2.85,6.33-3.69,9.62-1.52,6-2,12.3-5.42,17.68-1.48,2.33-1.25,4.11.12,6.51s-.21,5.77-2.73,6c-2.71.23-6.26.85-8.06-.51-5-3.82-11.36-3-16.57-5.72a20.66,20.66,0,0,1-5-3.05c-1.1-1.06-1.55-2.8-2.29-4.24,1.57-.36,3.19-1.15,4.72-1,4.16.38,4.94-1.21,6.18-5.31a69.53,69.53,0,0,1,10.33-20.75c2.93-4,4.83-7.59,3.78-12.06-.91-3.86,2.59-7.24.45-11-2-3.49-1.71-7.78-3.25-11.22a16.16,16.16,0,0,1-1.21-6.83c-.13-6.28.2-12.59-.11-18.86-.42-8.81,1-17.6-1.67-26.5-1.28-4.31-1.66-9.87,1.46-14.92,1.53-2.49,1.09-7.17-.17-10.12-1-2.46-.11-3.8.11-7.43,0-3.5-1.27-2.61-1.32-5.64-.18-12.86.63-33.89-13.17-5.36-2.14,4.42-3.17.55-7,18-.41,1.85-.72,5.32-2.93,5.18-1.41-.1-1.74-.88-2.54,1.89-.64,2.18,1.32-4.54-.62,2.1-.36,1.23.94,1.62,1.36,2.82.49,1.35,2.76,3.37,2.34,4.26a2.84,2.84,0,0,1-.92,1.28,2,2,0,0,0,.15,1.93c1.45,1.57,3.27,3.23.75,4.94-.67.45-2.83-1.13-4.23-1.91a11.42,11.42,0,0,1-2.72-2.41c-1.08-1.29-1.86-2-2-2.36a16.4,16.4,0,0,1-1.66-4.37,26.34,26.34,0,0,1-.08-7.37c2.38-7.57,3-7.82,5.38-18.71.53-2.43,2.36-6.67,2.36-8.32,0-5.18,3.68-7.19,3.91-11.06.16-2.8,1.11-2.13,1.63-7.15.12-1.15.48-3.26.72-4.91.5-3.58,1.39-7.1,2-10.67.57-3.24-.38-6.39,1.71-9.84,1.86-3.08,1.33-7.64,2.15-11.55,2.3-11,9.24-17.55,18.13-22.65,1.4-.8,4-2.64,4.81-5.22.61-2-1.88-4.6-1.41-6.86.38-1.87-.15-2.61-.08-4.15.06-1.22-1-.81-1.78-1.65-.4-.41-.27-1.49,0-2.78.32-1.7.75-2.55.53-4.15a3,3,0,0,0-.42-1.45c-.87-1.26-2.91-1.2-4.11-1.36-1-.13-2.19.25-3.11-.1a3.59,3.59,0,0,1-1.61-2c-.16-.44.34-1.63.68-1.69,6.12-1.08,9.37-5.35,12.42-10.26C1084.42,662.71,1088.36,660.65,1092.22,661.89Z"/><g class="cls-28"><path class="cls-14" d="M1373.23,1393.3c5.19-4.38,9.68-6.61,11.56-12.35,2.79-8.54.82-24.16-6.58-28.59-4.39-2.63-8.83-5.81-9.33-9.4-.6-4.31,1.5-9.8,4.28-13.06,9.24-10.87,6.16-22.37.3-34.59a14,14,0,0,1-1.21-7.15c1.39-12.47-2-23.53-10.43-33.76-4-4.82-8.5-10.21-9.89-15.83-1.54-6.24-6.58-9.46-8.67-14.67-2.2-5.48-3.61-11.21-5.76-16.71-1.94-5-4.8-9.26-10.7-9.75-3.6-.3-5-2-5.17-6-.1-2.29-2.64-5.72-4.84-6.9-9.81-5.29-17.71-12.72-24.93-21.32-2.51-3-6.11-5-9-7.73-3.28-3.08-4.25-8.48-10-9.22-5.86-.77-11.83-2-16.38,1.93-4,3.41-5.39,1.34-9.43-1.66a240.12,240.12,0,0,0-44-26.1,44.11,44.11,0,0,1-13.16-9.2c-3.54-3.66-4.39-7.17-10.21-20.26-5.88-9.37.85-14.65-2.54-23.26-3.92-10,1.22-16.13-2.18-25.45-.73-13.09,1.54-24.35,3.27-36.35,2.22-15.44,6.32-19.09-10.08-20.7-2.31-.23-5.52-.91-6.81-2.56-11.24-14.5-24.52-10.55-37.62-8.49a4.44,4.44,0,0,0-2.33,1.68,30.39,30.39,0,0,0-2.17,3.45c1.55.88,3.76,2.9,4.54,2.47,6-3.35,10.29,2.36,14.56,4.8,2.52,1.43,3.72,6.88,4.44,10.64.94,4.83.83,9.78,1.12,14.68.35,5.9.53,11.79,1,17.69s1.1,11.69,1.74,17.53c.31,2.9,1.39,5.92,1.07,8.66-.55,4.87-1.91,9.56-2.93,14.32-5-1.68-4.48-3.19-7-7.71-9.43-17-38.12-76.25-46.79-80.15-3.76-1.69-5.1-4.09-5.72-8.17-.65-4.29-5-5-8.44-5.22-4.63-.31-3.49.09-6.36-1.45-10.3-5.54-11.87-11.09-20.18-11.09-4.72,0-3.45.91-2.12,2.62s4,6.44,4.49,8.83c.54,1.64,5,9.25,8,11.33,4.74,3.33,7.82,3.94,9.64,10.85,3.52,13.38,40,89.05,50.52,101.05,4.84,5.51,6.18,4,14.59,10.2,2.46,5.53,9.42,6.89,10.4,13.3.92,6,5.09,11,6.45,16.56,1,3.88,2.77,6.59,4.77,9.47,5.52,7.9,11.55,15.46,16.85,23.49,7.44,11.28,16.9,21,21.94,34.25,2.44,6.39,7,13.59,15.05,17.33,4,1.84,7.68,8,8.92,12.7,1,3.9.7,6.89,5.45,7.27,0,2.35,2.28,5.65-2,6.21l-15.45,1.14c-2.79.13-5.81,1.18-8.3.23a46.12,46.12,0,0,1-12.67-7.12c-3.43-2.81-4.75-8.27-10.16-8.88-.56-.06-1.62-1.75-1.56-2.53.22-3.12.77-6.65-3.59-6.72-1.17,0-2.13,3.72-3,5.81-4.22,9.7-1.54,18.47,7.6,25.74,7.72,6.14,15.63,12.1,22.86,18.84,2.77,2.59,4.91,5.13,8.7,5.53,1.35.15,3.57.89,3.88,1.78,2.58,7.43,9.85,6.53,14.58,10,2.86,2.11,8.17,1.87,6.77,8.22-.36,1.63,2.25,4.6,4,6.46,3.79,4,8,7.69,11.87,11.6,3.56,3.56,5.32,8.24,10.76,10.82,4.87,2.31,8.37,8.4,12.81,12.59,12.45,11.75,26.16,14.27,40.71,13.37,3.14-.19,5.28-1.51,7.07,2.19,3.13,6.47,10.85,10.41,10.73,18.74,0,1.08,1.46,2.48,2.47,3.48,6.42,6.27,6.67,7.15,1.77,11.88-1,1-2.69,1.48-3.4,2.66-.55.92-.36,2.62,0,3.85.22.69,1.85,1.75,2.29,1.54,7.83-3.62,15.33-1,23.17,2.64C1363.75,1398.62,1370,1398,1373.23,1393.3Z"/></g><path class="cls-29" d="M1079.54,707.5a17.25,17.25,0,0,0-4.84,2.49,46,46,0,0,0-5.39,4,36.84,36.84,0,0,0-3.52,3.22,19.17,19.17,0,0,0-3.57,4.9,7.8,7.8,0,0,0-.67,1.7,7.28,7.28,0,0,0,.43,4.6c.61,1.39,2.11,3.52,3.39,3.28.73-.15.7-.94,1.51-1.7,2-1.91,5.13.3,7.27-1.09,1.83-1.19.77-3.55,2.18-6.73,2.13-4.77,7.71-6.57,8.18-6.72,6.55-2,11.15,4,11.39-1.7.07-1.57-8.19-7.49-11.93-6.84C1081,707.4,1081,707.1,1079.54,707.5Z"/><path class="cls-30" d="M1058.82,737.49c-.11,2.79-.32,3.32-.48,3.64-.39.8-.68.85-1.7,2.54-.73,1.22-.84,1.64-.84,2.06a2.79,2.79,0,0,0,.84,2.06c1.34,1.11,3.09-.49,4.73.61.87.58.79,1.31,1.82,1.69a3.52,3.52,0,0,0,2.06,0c.34-.06,3.2-.63,3.27-1.69,0-.65-1-.81-1.94-1.82-2-2.19-1.71-6.54-.24-7.27,1-.48,2.13.75,2.91.12a2,2,0,0,0,.24-2.18c-.66-1.53-3-2-4.49-1.94s-1.66.58-2.66.36c-1.92-.4-2.54-2.63-3.15-2.42C1058.77,733.4,1059,734.48,1058.82,737.49Z"/><path class="cls-31" d="M1051.43,772.51a11.44,11.44,0,0,1-.6,5c-.66,2.38-2.24,4.15-1.94,5.75.22,1.17,1.3,1.58,1.09,2.55s-1.19.9-1.64,2c-.38.94-.21,2.28.37,2.54,1,.43,3.22-2.15,4.54-4.36,1.71-2.86.8-3.32,2.36-5.82,1.43-2.27,2.55-2.49,4.73-5.81,1.39-2.13,1.42-2.79,1.27-3.27-.56-1.82-7.16-4.92-8.27-3.82A7,7,0,0,0,1051.43,772.51Z"/><path class="cls-32" d="M1044.16,796.68c-.61,1.19-.58,1.81-1.86,6.44l-.14.47A74.15,74.15,0,0,1,1040,811a14.44,14.44,0,0,0-1.81,4.73,11.57,11.57,0,0,0,0,3.27,14.24,14.24,0,0,0,1.81,5.45,12,12,0,0,0,2.37,2.91,18.43,18.43,0,0,0,4.9,2.91h0a26.8,26.8,0,0,0-1.27-3.82c-1.53-3.31-4.1-3.12-4.54-5.45-.26-1.36.53-1.86,1.27-4.18,1-3.1.1-3.85.54-7.45.53-4.29,2-4.84,3.28-11.46.66-3.36.42-3.89.18-4C1046.18,793.74,1044.89,795.27,1044.16,796.68Z"/><path class="cls-33" d="M1073.79,782c-.92.34-.12,2.12-1.09,8.36-.56,3.59-.51,4.81.45,6.45a6.17,6.17,0,0,1,1.18,3.37,10.59,10.59,0,0,1-.72,2.54c-.62,1.79-.74,1.89-.73,2.36,0,1.16.85,1.54,1.45,2.73.28.53.36.94.37,4.54,0,4.87-.15,5.55-.37,6.18-.37,1.12-.56,1-1.27,2.91a15.86,15.86,0,0,0-1.09,3.82,20.3,20.3,0,0,0,0,4h0s3.85-.93,5.64-2.37,2-3.55,2.18-9.45c.32-9.95-.24-10.75.18-16,.49-6.15,1.41-6.82.73-10C1079.51,785.93,1075.37,781.38,1073.79,782Z"/><path class="cls-34" d="M1074.7,848.48c-2.36,1.76.42,5.52-.18,16.18-.26,4.54-.94,6.88-.55,11.81.25,3.2.87,6.53.91,6.73.12.65.51,2.67,1.27,5.45a80.69,80.69,0,0,0,2.91,8.72c2.48,6,6.6,10.17,12.36,16s8.79,8.9,10.9,10.36a11.72,11.72,0,0,1,2.73,2.54,12.06,12.06,0,0,1,1.82,3.27c1.54,4,5.21,8,13.81,21.27,2.27,3.5,4.44,7,6.18,6.54.9-.22.84-1.27,2.36-2.54,2.36-2,4.67-1.28,5.09-2.55.35-1-.86-2.58-2.18-3.27-1.82-1-3.45-.06-4.91,0-5.84.26-8.33-12.83-20-24-2.43-2.33-2-1.41-4.72-4-10.62-9.94-9.79-16.19-17.63-21.26-.55-.36-4.24-2.71-3.82-3.82.26-.7,2-.52,2.18-1.27s-1.16-1-1.45-2.18c-.34-1.4,1.12-2.25.72-3.28s-2.1-.6-2.9-1.63c-.93-1.19.31-3.11,1.09-5.64,1.45-4.71-.6-5.27.54-10.54,1-4.44,2.82-5.88,1.82-8.18-.77-1.75-2.13-1.49-2.73-3.09-1.22-3.24,3.66-6.23,2.73-9.08C1082.23,848.49,1077,846.76,1074.7,848.48Z"/><path class="cls-35" d="M1078.61,902c-.7.12-.88,2.22-.91,2.63-.15,1.77.31,2.49.45,4.18a13,13,0,0,1-.45,4.27,18.56,18.56,0,0,1-2.28,5.37c-1.86,3-2.78,2.74-4.72,5.9a29.56,29.56,0,0,0-2.18,4.46c-.82,2-.92,2.7-1.73,4.81-.32.85-.55,1.23-2.18,4.91a8.4,8.4,0,0,0-.73,3.54c0,.83.18,1.22.46,1.46.49.43,1,.07,2,.27,1.51.3,2.1,1.52,2.54,1.27.28-.16.2-.75.09-1.81s-.1-2.25-.27-3.37c-.08-.55-.21-1.87,1.64-7.81,1.16-3.75,1.74-5.62,2.36-6.54,2.11-3.17,3.75-2.42,5.36-5.09,1.78-3-.19-3.89,1.45-9.55.72-2.45,1.57-3.93,1-6.08C1080.15,903.42,1079.23,901.9,1078.61,902Z"/><path class="cls-36" d="M1069.91,677.82c0-.54,2.87.21,5.21-1.7,3-2.41,3.71-3.21,5.18-5.38a70.84,70.84,0,0,1,4.21-6.19,6,6,0,0,1,2.87-1.86c1.83-.24,2.22-.69,3.81-.37a4.43,4.43,0,0,1,2.77,1.8,7,7,0,0,1,1.15,4c-.14,4.61-3.39,9.41-6.42,9.7-.37,0-.86,0-2.12.12-1.58.13-2.67.33-3.27.42-1.7.27-1.63.07-5.51.3-2.84.18-4.19.36-6.24-.12C1070.9,678.39,1069.92,678.16,1069.91,677.82Z"/></g></svg>